<?xml version="1.0" encoding="utf-8"?>
<!-- Generator: Adobe Illustrator 23.0.2, SVG Export Plug-In . SVG Version: 6.00 Build 0)  -->
<svg version="1.1" id="Layer_1" xmlns="http://www.w3.org/2000/svg" xmlns:xlink="http://www.w3.org/1999/xlink" x="0px" y="0px"
	 viewBox="0 0 1280 322" style="enable-background:new 0 0 1280 322;" xml:space="preserve">
<style type="text/css">
	.st0{fill:#259EC0;}
	.st1{fill:#9D9D9C;}
	.st2{fill:#4EC4E3;}
</style>
<g>
	<g>
		<path class="st0" d="M326.37,259.72c1.67-21.07,2.81-38.16,3.43-51.28c0.61-13.11,1.43-38.34,2.46-75.67
			c1.02-37.33,1.51-60.64,1.47-69.93l-0.22-14.56c13.93,0.14,24.67,0.19,32.2,0.16c6.09-0.03,14.27-0.17,24.54-0.42
			c10.27-0.25,18.14-0.39,23.61-0.42c11.35-0.05,20,0.48,25.94,1.58c5.94,1.11,11.24,2.89,15.9,5.35c4.65,2.46,8.59,5.56,11.81,9.31
			c3.22,3.76,5.82,8.41,7.8,13.98c1.99,5.57,3,11.71,3.03,18.42c0.02,5.27-0.6,10.35-1.86,15.26c-1.27,4.91-3.23,9.52-5.9,13.81
			c-2.67,4.3-5.75,8-9.24,11.12c-3.5,3.11-6.84,5.53-10.03,7.25c-3.19,1.72-7.42,3.57-12.67,5.56c5.27,1.32,9.48,2.59,12.64,3.81
			c3.15,1.22,6.31,2.86,9.47,4.91c3.16,2.05,6.11,4.59,8.86,7.63c2.75,3.03,4.99,6.28,6.71,9.73c1.72,3.45,3.05,7.34,4,11.67
			c0.95,4.33,1.44,8.87,1.46,13.62c0.03,6.61-0.92,12.91-2.85,18.91c-1.93,6-4.75,11.35-8.44,16.07
			c-3.69,4.72-8.07,8.66-13.11,11.83c-5.04,3.17-10.04,5.57-14.99,7.19c-4.95,1.62-11.47,2.82-19.58,3.58
			c-8.1,0.76-18.92,1.17-32.44,1.23l-39.49,0.03L326.37,259.72z M356,240.07l40.21-0.19c11.34-0.05,19.74-0.71,25.2-1.98
			c5.46-1.26,10.81-3.48,16.05-6.66c5.24-3.17,9.34-7.89,12.31-14.15c2.96-6.26,4.43-12.9,4.39-19.92
			c-0.03-5.78-1.11-10.99-3.24-15.63c-2.14-4.64-5.25-8.65-9.34-12.04c-4.09-3.39-8.87-5.84-14.35-7.37
			c-5.48-1.52-13.47-2.26-23.99-2.21l-44.87,0.21L356,240.07z M359.17,140.78l28.01-0.13c12.59-0.06,21.15-0.38,25.69-0.97
			c4.54-0.59,9.46-1.95,14.76-4.1c5.3-2.14,9.68-5.26,13.11-9.35c3.44-4.09,5.94-8.55,7.52-13.35c1.58-4.81,2.36-9.64,2.33-14.49
			c-0.02-5.16-0.9-9.7-2.62-13.62c-1.72-3.91-4.29-7.26-7.71-10.03c-3.42-2.77-7.43-4.77-12.03-5.98c-4.6-1.22-11.6-1.8-20.99-1.76
			l-45.69,0.21L359.17,140.78z"/>
		<path class="st0" d="M513.45,258.85c3.44-59.59,5.07-107.15,4.9-142.66l-0.22-14.25c5.27,0.08,9.6,0.11,13.01,0.09
			c3.93-0.02,8.31-0.09,13.17-0.22l-1.11,25.72c3.79-6.42,7.15-11.26,10.08-14.53c2.93-3.27,6.24-5.97,9.95-8.1
			c3.71-2.13,7.91-3.8,12.6-5.01c4.69-1.21,9.57-1.83,14.62-1.85c4.34-0.02,8.62,0.48,12.86,1.49c0.13,6.81,0.53,14.45,1.19,22.92
			c-6.41-1.72-12.14-2.58-17.2-2.55c-6.09,0.03-11.56,1.06-16.4,3.1c-4.84,2.04-9.19,5.1-13.04,9.2c-3.85,4.1-7,8.99-9.45,14.68
			c-2.04,4.55-3.59,10.45-4.64,17.68c-1.05,7.23-1.84,20.4-2.37,39.5c-0.35,13.94-0.48,28.71-0.41,44.3l0.05,10.38
			c-5.58-0.18-10.08-0.26-13.48-0.25C524.45,258.49,519.75,258.61,513.45,258.85z"/>
		<path class="st0" d="M753.08,233.11c-1.21,5.68-2.42,12.92-3.62,21.7c-9.9,2.52-18.49,4.24-25.76,5.15
			c-7.28,0.91-14.53,1.38-21.75,1.42c-12.91,0.06-24.5-1.44-34.79-4.48c-10.29-3.05-19.12-8.4-26.48-16.06
			c-7.37-7.66-12.67-16.44-15.92-26.33c-3.25-9.9-4.9-20.37-4.95-31.42c-0.07-15.38,2.8-29.67,8.63-42.86
			c5.82-13.19,14.63-23.58,26.42-31.18c11.79-7.59,26.76-11.43,44.94-11.52c9.39-0.04,18.38,1.28,26.97,3.98
			c8.58,2.7,15.72,6.82,21.43,12.37c5.7,5.55,10.12,12.42,13.26,20.61c3.14,8.19,4.73,17.15,4.77,26.85
			c0.02,3.72-0.28,7.33-0.88,10.85l-118.17,0.55c-0.39,5.68-0.57,10.02-0.56,13.01c0.05,10.84,2.37,20.82,6.96,29.94
			c4.58,9.12,11.33,16,20.23,20.66c8.9,4.66,19.13,6.96,30.7,6.9C717.82,243.18,734.01,239.8,753.08,233.11z M648.35,159.87
			l92.31-0.43c-0.13-6.5-0.57-11.56-1.31-15.17c-0.74-3.61-2.1-7.35-4.08-11.21c-1.98-3.86-4.66-7.2-8.02-10.03
			c-3.37-2.82-7.41-4.97-12.11-6.45c-4.71-1.47-9.79-2.2-15.27-2.17c-5.88,0.03-11.48,0.88-16.79,2.56
			c-5.31,1.68-10,3.97-14.06,6.88c-4.07,2.91-7.51,6.31-10.33,10.19c-2.82,3.88-4.92,7.64-6.3,11.26
			C651.01,148.92,649.67,153.78,648.35,159.87z"/>
		<path class="st0" d="M921.43,232.32c-1.21,5.68-2.42,12.92-3.62,21.7c-9.9,2.52-18.49,4.24-25.76,5.15
			c-7.28,0.91-14.53,1.38-21.75,1.42c-12.91,0.06-24.5-1.44-34.79-4.48c-10.29-3.05-19.11-8.4-26.48-16.06
			c-7.37-7.66-12.67-16.44-15.92-26.33c-3.25-9.9-4.9-20.37-4.95-31.42c-0.07-15.38,2.8-29.67,8.63-42.86
			c5.82-13.19,14.63-23.58,26.42-31.18c11.79-7.59,26.76-11.43,44.94-11.52c9.39-0.04,18.38,1.28,26.97,3.98
			c8.58,2.7,15.72,6.82,21.43,12.37c5.7,5.55,10.12,12.42,13.26,20.61c3.14,8.19,4.73,17.14,4.77,26.85
			c0.02,3.72-0.28,7.33-0.88,10.85l-118.17,0.55c-0.39,5.68-0.57,10.02-0.56,13.01c0.05,10.84,2.37,20.82,6.95,29.94
			c4.58,9.12,11.33,16,20.23,20.66c8.9,4.66,19.13,6.96,30.7,6.9C886.17,242.4,902.36,239.02,921.43,232.32z M816.7,159.09
			l92.3-0.43c-0.13-6.5-0.57-11.56-1.31-15.17c-0.74-3.61-2.1-7.35-4.08-11.21c-1.98-3.86-4.66-7.2-8.02-10.03
			c-3.37-2.82-7.41-4.97-12.11-6.45c-4.71-1.47-9.79-2.2-15.27-2.17c-5.88,0.03-11.48,0.88-16.79,2.56
			c-5.31,1.68-10,3.97-14.06,6.88c-4.07,2.91-7.51,6.31-10.33,10.19c-2.82,3.89-4.92,7.64-6.3,11.26
			C819.36,148.13,818.01,152.99,816.7,159.09z"/>
		<path class="st0" d="M950.66,256.81c0.38-6.51,0.6-14.25,0.67-23.23l8.02-9.48c1.64-1.87,3.18-3.73,4.62-5.6l80.13-100.27
			c-9.51-0.06-19.53-0.06-30.07-0.02c-16.64,0.08-34.41,0.73-53.32,1.95c0.48-6.92,0.71-13.68,0.68-20.29
			c17.04,0.03,36.34-0.01,57.92-0.11c19.51-0.09,37.48-0.23,53.9-0.41c-0.29,3.93-0.48,8.11-0.56,12.55l-0.41,11.62
			c-3.9,4.56-7.65,9.12-11.24,13.68l-80.84,100.27c10.02,0.37,19.77,0.53,29.27,0.48c24.88-0.12,44.34-0.72,58.38-1.82
			c-0.7,5.58-1.13,12.29-1.3,20.14c-16.94-0.13-35.47-0.14-55.6-0.05C986.02,256.34,965.94,256.54,950.66,256.81z"/>
		<path class="st0" d="M1230.56,230.89c-1.21,5.68-2.42,12.92-3.62,21.7c-9.9,2.52-18.49,4.24-25.76,5.15
			c-7.27,0.91-14.53,1.38-21.75,1.42c-12.91,0.06-24.5-1.44-34.79-4.48c-10.29-3.05-19.12-8.4-26.48-16.06
			c-7.37-7.66-12.67-16.44-15.92-26.33c-3.25-9.9-4.9-20.37-4.95-31.42c-0.07-15.38,2.8-29.67,8.63-42.86
			c5.82-13.19,14.63-23.58,26.42-31.18c11.79-7.59,26.77-11.43,44.94-11.52c9.39-0.04,18.38,1.28,26.97,3.98
			c8.58,2.7,15.72,6.82,21.43,12.37c5.7,5.55,10.13,12.42,13.26,20.61c3.14,8.19,4.73,17.14,4.77,26.85
			c0.02,3.72-0.28,7.33-0.88,10.85l-118.17,0.55c-0.39,5.68-0.57,10.02-0.56,13.01c0.05,10.84,2.37,20.82,6.95,29.94
			c4.58,9.12,11.33,16,20.23,20.66c8.9,4.66,19.13,6.96,30.7,6.9C1195.29,240.96,1211.48,237.58,1230.56,230.89z M1125.83,157.65
			l92.3-0.43c-0.13-6.5-0.57-11.56-1.31-15.17c-0.74-3.61-2.1-7.35-4.08-11.21c-1.98-3.86-4.66-7.2-8.02-10.03
			c-3.37-2.82-7.41-4.97-12.11-6.45c-4.71-1.47-9.79-2.2-15.27-2.17c-5.88,0.03-11.48,0.88-16.79,2.56
			c-5.31,1.68-10,3.97-14.06,6.88c-4.07,2.91-7.51,6.31-10.33,10.19c-2.82,3.88-4.92,7.64-6.3,11.26
			C1128.49,146.7,1127.14,151.55,1125.83,157.65z"/>
	</g>
	<g>
		<path class="st0" d="M266.37,112.87c14.21-14.15,17.97-39.16,8.73-56.98c-9.21-17.76-30-29.58-50.04-25.4
			c-19.43,3.43-34,21.68-33.39,41.26c0.53,17.1,14.16,33.77,32.32,33.26c14.34-0.4,27.47-9.42,28.42-24.82
			c0.47-7.57-2.48-15.28-8.69-19.85c-7.55-5.55-19.36-5.49-25.74,1.88c-5.93,6.86-5.37,18.83,3.44,23.07
			c7.21,3.46,17.16-1.8,15.41-10.19c0,1.01-0.23,2.38-0.29,2.63c-0.54,2.35-1.95,4.42-4.05,5.65c-4.45,2.62-10.74,0.82-13.43-3.47
			c-5.77-9.21,3.45-19.32,13.11-18.04c7.94,1.05,13.04,8.16,12.93,15.84c-0.13,9.25-7.12,16.11-15.87,17.75
			c-14.15,2.67-25.58-9.29-26.55-22.72c-1.33-18.46,16.61-32.77,34.19-30.56c8.85,1.11,17.04,6.21,22.67,13.02
			c6.16,7.46,8.14,16.32,7.6,25.83c-0.57,9.84-4.39,19.21-12.18,25.51c-7.99,6.43-18.45,9.36-28.43,10.78
			c-11.52,1.63-23.29,1.31-34.89,1.63c-11.38,0.32-22.76,0.7-34.14,1.07c-40.43,1.3-80.85,3.22-121.21,5.94
			c56.44,2.63,112.98,3.72,169.48,3.84C226.8,129.83,250.51,128.65,266.37,112.87z"/>
		<path class="st1" d="M236.83,75.09c0-0.55-0.06-0.99-0.26-1.09C236.69,74.37,236.76,74.73,236.83,75.09z"/>
		<path class="st2" d="M272.25,142.89c18.36-9.58,30.53-27.19,34.01-47.52c3.39-19.8,0.13-40.54-13.03-56.14
			c-11.72-13.89-28.17-21.68-46.11-23.11c21.01,5.25,40.17,19.46,47.7,40.39c7.44,22.83,1.9,52.19-16.85,68.08
			c-16.65,14.11-38.57,15.65-59.42,15.65c-23.16,0-46.28-0.1-69.44,0.43c-37.61,0.85-75.36,2.28-112.81,5.92
			c62.2,5.19,124.99,5.75,187.37,6.34C240.27,153.08,257.4,150.64,272.25,142.89z"/>
		<path class="st1" d="M236.77,285.12c-0.07,0.32-0.1,0.64-0.2,0.96C236.71,286.01,236.76,285.59,236.77,285.12z"/>
		<path class="st0" d="M276.48,224.71c-8.05-20.92-29.3-29.76-50.22-31.85c-11.44-1.14-23.05-0.66-34.53-0.58
			c-11.38,0.08-22.77,0.23-34.15,0.36c-40.44,0.46-80.89,1.54-121.29,3.42c20.25,1.36,40.51,2.43,60.77,3.48
			c22.51,1.16,45.04,2.01,67.56,2.68c11.33,0.39,22.66,0.75,33.99,1.03c11.6,0.3,23.28,0.14,34.67,2.66
			c9.47,2.1,19.26,5.99,25.74,13.49c6.51,7.53,8.63,17.59,8.13,27.34c-0.93,18.08-16.86,34.16-35.48,33.26
			c-16.42-0.79-32.07-15.94-28.78-33.24c1.71-8.98,6.8-16.5,15.81-19.42c4.28-1.39,9.24-1.5,13.55-0.13
			c8.93,2.85,14.11,11.89,12.47,21.01c-1.43,7.95-9.45,13.24-17.32,11.8c-8.88-1.35-13.81-13.88-6.5-20.08
			c3.65-3.09,9.64-3.55,13.2-0.06c1.45,1.42,2.35,3.33,2.59,5.35c0.02,0.17,0.09,1.08,0.07,1.82c0.99-4.79-2.03-9.6-6.74-11
			c-6.41-1.91-13.17,2-15.24,8.23c-4.37,13.12,8.84,23.59,21.14,20.88c11.61-2.55,17.91-14.19,16.27-25.45
			c-1.7-11.62-10.51-19.56-21.58-22.14c-13.32-3.1-27.88,4.39-34.46,16c-9.93,17.52-2.8,40.32,13.3,51.36
			c17.3,11.86,40.14,8.54,55.24-5.32C279.83,265.71,283.8,243.73,276.48,224.71z"/>
		<path class="st2" d="M258.69,173.62c-13.75-4.12-27.66-4.61-41.86-4.48c-22.1,0.21-44.21,0.75-66.31,1.2
			c-38.06,0.77-76.28,1.91-114.22,5.07c46.67,4.55,93.86,6.07,140.73,6.43c11.56,0.09,23.12,0.02,34.67-0.05
			c10.86-0.06,22.07-0.55,32.81,1.37c19.86,3.56,38.11,13.03,46.96,32.03c8.24,17.69,9.35,41.02-0.37,58.34
			c-9.42,16.78-25.56,27.74-43.98,32.35c30.09-2.4,56.07-24.18,59.7-54.81c2-16.85-0.72-34.69-9.8-49.23
			C288.28,187.86,274.36,178.31,258.69,173.62z"/>
	</g>
</g>
</svg>
