<?xml version="1.0" encoding="utf-8"?>
<!-- Generator: Adobe Illustrator 23.0.2, SVG Export Plug-In . SVG Version: 6.00 Build 0)  -->
<svg version="1.1" id="Layer_1" xmlns="http://www.w3.org/2000/svg" xmlns:xlink="http://www.w3.org/1999/xlink" x="0px" y="0px"
	 viewBox="0 0 512 512" style="enable-background:new 0 0 512 512;" xml:space="preserve">
<style type="text/css">
	.st0{fill:#259EC0;}
	.st1{fill:#9D9D9C;}
	.st2{fill:#4EC4E3;}
</style>
<g>
	<path class="st0" d="M407.46,183.08c22.46-22.35,28.39-61.87,13.8-90.01c-14.54-28.05-47.39-46.74-79.05-40.12
		c-30.69,5.41-53.72,34.25-52.75,65.18c0.84,27.01,22.38,53.34,51.05,52.54c22.66-0.64,43.4-14.88,44.89-39.21
		c0.74-11.95-3.91-24.14-13.73-31.36c-11.93-8.78-30.59-8.67-40.66,2.97c-9.37,10.83-8.48,29.75,5.44,36.44
		c11.39,5.47,27.11-2.84,24.34-16.1c-0.01,1.6-0.37,3.76-0.46,4.16c-0.85,3.72-3.09,6.98-6.39,8.93
		c-7.02,4.14-16.97,1.29-21.22-5.49c-9.11-14.55,5.45-30.52,20.71-28.5c12.54,1.67,20.6,12.89,20.43,25.02
		c-0.2,14.61-11.25,25.44-25.06,28.05c-22.36,4.21-40.41-14.68-41.94-35.89c-2.11-29.16,26.24-51.77,54.02-48.28
		c13.98,1.76,26.92,9.8,35.81,20.57c9.74,11.78,12.86,25.79,12,40.81c-0.89,15.55-6.94,30.35-19.24,40.3
		c-12.62,10.16-29.14,14.79-44.92,17.02c-18.19,2.57-36.79,2.07-55.12,2.57c-17.98,0.5-35.96,1.11-53.93,1.69
		c-63.86,2.05-127.72,5.08-191.47,9.38c89.16,4.15,178.48,5.88,267.73,6.07C344.94,209.87,382.4,208.02,407.46,183.08z"/>
	<path class="st1" d="M360.79,123.4c0-0.86-0.09-1.57-0.41-1.72C360.57,122.26,360.67,122.83,360.79,123.4z"/>
	<path class="st2" d="M416.75,230.5c29.01-15.14,48.23-42.95,53.73-75.06c5.36-31.28,0.2-64.05-20.59-88.69
		c-18.52-21.95-44.5-34.25-72.85-36.51c33.19,8.3,63.46,30.74,75.35,63.8c11.75,36.06,3.01,82.44-26.62,107.55
		c-26.3,22.29-60.92,24.73-93.86,24.73c-36.58,0-73.12-0.15-109.69,0.68c-59.41,1.35-119.04,3.59-178.21,9.36
		c98.26,8.2,197.45,9.09,295.99,10.01C366.22,246.6,393.27,242.75,416.75,230.5z"/>
	<path class="st1" d="M360.69,455.19c-0.1,0.5-0.15,1.01-0.31,1.51C360.6,456.59,360.67,455.93,360.69,455.19z"/>
	<path class="st0" d="M423.43,359.76c-12.71-33.05-46.29-47.02-79.33-50.31c-18.07-1.8-36.41-1.04-54.55-0.91
		c-17.98,0.13-35.97,0.36-53.95,0.57c-63.88,0.72-127.79,2.43-191.6,5.4c31.98,2.16,63.99,3.84,96.01,5.49
		c35.55,1.83,71.14,3.18,106.73,4.24c17.9,0.61,35.8,1.18,53.7,1.63c18.32,0.47,36.78,0.22,54.77,4.2
		c14.96,3.31,30.42,9.46,40.67,21.31c10.29,11.9,13.64,27.79,12.85,43.19c-1.47,28.57-26.64,53.97-56.04,52.55
		c-25.94-1.25-50.66-25.19-45.47-52.51c2.69-14.18,10.74-26.07,24.97-30.67c6.76-2.19,14.6-2.37,21.41-0.2
		c14.1,4.5,22.29,18.79,19.69,33.19c-2.26,12.56-14.93,20.92-27.37,18.64c-14.02-2.13-21.82-21.93-10.27-31.72
		c5.77-4.89,15.22-5.61,20.85-0.1c2.3,2.25,3.71,5.26,4.09,8.45c0.03,0.26,0.14,1.7,0.1,2.87c1.56-7.57-3.2-15.16-10.65-17.38
		c-10.13-3.01-20.8,3.16-24.08,13c-6.9,20.73,13.97,37.26,33.39,32.99c18.34-4.03,28.3-22.41,25.7-40.2
		c-2.68-18.36-16.61-30.91-34.09-34.98c-21.05-4.9-44.05,6.93-54.44,25.28c-15.68,27.68-4.43,63.69,21.02,81.13
		c27.32,18.74,63.42,13.48,87.26-8.41C428.72,424.53,434.99,389.8,423.43,359.76z"/>
	<path class="st2" d="M395.32,279.05c-21.72-6.51-43.69-7.28-66.12-7.07c-34.92,0.33-69.84,1.19-104.75,1.9
		c-60.13,1.22-120.5,3.01-180.45,8.01c73.73,7.18,148.27,9.59,222.32,10.15c18.26,0.14,36.52,0.03,54.78-0.08
		c17.16-0.1,34.86-0.87,51.83,2.17c31.37,5.62,60.21,20.59,74.18,50.6c13.01,27.94,14.77,64.8-0.59,92.17
		c-14.88,26.51-40.37,43.83-69.48,51.1c47.54-3.79,88.57-38.2,94.32-86.58c3.16-26.62-1.13-54.8-15.48-77.77
		C442.07,301.55,420.08,286.47,395.32,279.05z"/>
</g>
</svg>
